<svg xmlns="http://www.w3.org/2000/svg" width="243" height="102" version="1.2"><style>path{fill:white !important;}.c{stroke:#000;stroke-linecap:round;stroke-miterlimit:10;stroke-width:.4}</style><path fill-rule="evenodd" d="M121.3 99.4c-8.1 0-14.7-2.6-19.6-7.6-4.9-5.1-7.4-12.3-7.4-21.4 0-9 2.4-16.2 7.2-21.3 4.7-5.1 11-7.7 18.7-7.7 7.8 0 14.2 2.6 18.9 7.6 4.7 5 7 12.2 7 21.4 0 1-.7 1.7-1.7 1.7h-35.9c-1.4 0-2.7.7-3.5 1.7-.9 1.1-1.3 2.4-1 3.7.9 4.5 2.6 7.9 5 10.4 3.4 3.3 7.5 5 12.3 5 3.7 0 7-1 9.9-2.8 2.4-1.6 4-3.7 4.6-6.2.1-.8.8-1.4 1.5-1.4h5.5c.5 0 1 .2 1.4.7.3.4.4 1 .3 1.5-1.2 4.2-3.6 7.6-7.1 10.1-4.4 3-9.8 4.6-16.1 4.6zm-1.1-51.5c-4.2 0-7.8 1.4-10.8 4.2-2 1.9-3.5 4.4-4.6 7.4-.4 1.5-.2 3 .7 4.2.9 1.2 2.2 1.9 3.7 1.9h22c1.6 0 2.9-.7 3.8-1.9.9-1.2 1.1-2.8.6-4.2-1-3-2.5-5.5-4.4-7.3-3-2.8-6.7-4.3-11-4.3z"/><path fill-rule="evenodd" d="M139.6 48.5q7.2 7.8 7.2 21.9c0 1.4-1.1 2.4-2.4 2.4h-35.9c-2.4 0-4.3 2.2-3.8 4.6q1.2 6.4 4.8 10 4.8 4.8 11.8 4.8 5.3 0 9.6-2.7 3.4-2.2 4.2-5.8c.2-1.1 1.1-1.9 2.2-1.9h5.5c1.6 0 2.8 1.6 2.3 3.1q-1.8 6.6-7.3 10.4-6.8 4.8-16.5 4.8-12.5 0-20.1-7.8-7.6-7.9-7.6-21.9 0-13.9 7.4-21.8 7.3-7.8 19.2-7.8 12.1 0 19.4 7.7zM102 49.6c-4.6 4.9-7 12-7 20.8 0 8.9 2.4 16 7.2 20.9 4.8 4.9 11.2 7.4 19.1 7.4 6.2 0 11.5-1.5 15.7-4.5 3.5-2.4 5.7-5.6 6.8-9.7.1-.3 0-.6-.2-.9-.1-.2-.4-.4-.8-.4h-5.5c-.5 0-.8.4-.9.8-.6 2.8-2.2 5-4.8 6.6-3 2-6.5 3-10.3 3-5 0-9.3-1.8-12.7-5.2-2.6-2.6-4.4-6.2-5.3-10.7-.3-1.5.1-3.1 1.1-4.3 1-1.2 2.5-2 4.1-2h35.9c.6 0 1-.4 1-1 0-9-2.3-16.1-6.8-21-4.6-4.8-10.7-7.3-18.4-7.3-7.5 0-13.6 2.5-18.2 7.5zm29.2 16.7h-22c-1.7 0-3.3-.8-4.3-2.2-1-1.4-1.3-3.1-.7-4.8 1-3.2 2.6-5.7 4.7-7.7 3.1-2.9 6.9-4.4 11.3-4.4 4.5 0 8.3 1.5 11.4 4.5 2 1.9 3.6 4.4 4.7 7.6.5 1.6.3 3.4-.7 4.8-1.1 1.4-2.6 2.2-4.4 2.2zm3.8-6.6q-1.5-4.4-4.3-7-4.3-4.1-10.5-4.1-6 0-10.4 4-2.8 2.7-4.3 7.1c-.8 2.6 1 5.2 3.7 5.2h22c2.7 0 4.6-2.6 3.8-5.2z"/><path d="M231.3 100.4c-4 0-6.9-.8-8.7-2.5-1.8-1.6-2.9-3.8-3.3-6.4-.5-2.8-.7-6.6-.7-11.3V45.6c0-2-1-3.7-2.6-4.5q-.1-.1-.3-.1h-5.2c-2.6 0-4.6-2-4.6-4.6 0-2.5 2-4.6 4.6-4.6h5.9q.2 0 .4-.2c1.1-.9 1.8-2.4 1.8-4v-8.5c0-2 1.2-3.6 2.8-3.6h3c1.6 0 2.8 1.6 2.8 3.6v8.5c0 1.6.7 3.1 1.8 4q.2.2.4.2h7c2.5 0 4.6 2.1 4.6 4.6 0 2.6-2.1 4.6-4.6 4.6h-6.3q-.1 0-.3.1c-1.5.8-2.6 2.5-2.6 4.5v35.2c0 4.9.6 8 1.7 9.4q1.6 2.1 4.5 2.1h1.6c1.5 0 2.8 1.6 2.8 3.5v1.6c0 1.5-.6 2.5-1.6 2.7q-2.3.3-4.9.3z"/><path fill-rule="evenodd" d="M227.9 19.1v8.5c0 1.5.6 2.7 1.5 3.5h7c2.9 0 5.3 2.4 5.3 5.3s-2.4 5.3-5.3 5.3h-6.3c-1.3.6-2.2 2.2-2.2 3.9v35.2q0 7 1.5 8.9 1.5 1.9 4 1.9h1.6c1.9 0 3.5 1.9 3.5 4.2v1.6c0 1.9-.9 3.2-2.2 3.4q-2.4.3-5 .3-6.2 0-9.1-2.7-2.9-2.6-3.6-6.8-.7-4.2-.7-11.4V45.6c0-1.7-.9-3.3-2.2-3.9h-5.2c-3 0-5.3-2.4-5.3-5.3s2.3-5.3 5.3-5.3h5.9c.9-.8 1.5-2 1.5-3.5v-8.5c0-2.4 1.6-4.2 3.5-4.2h3c2 0 3.5 1.8 3.5 4.2zm-6.5-2.9c-1.2 0-2.1 1.3-2.1 2.9v8.5c0 1.8-.8 3.5-2 4.6q-.4.3-.9.3h-5.9c-2.2 0-4 1.7-4 3.9s1.8 3.9 4 3.9h5.2q.3 0 .6.2c1.8.9 3 2.9 3 5.1v34.6c0 4.7.2 8.5.6 11.2.5 2.5 1.5 4.4 3.2 6 1.7 1.6 4.4 2.3 8.2 2.3q2.5 0 4.8-.3c.6-.1 1-.9 1-2v-1.6c0-1.5-1-2.8-2.1-2.8h-1.6q-3.2 0-5.1-2.4c-1.2-1.6-1.7-4.7-1.7-9.8V45.6c0-2.2 1.1-4.2 2.9-5.1q.3-.2.6-.2h6.3c2.2 0 3.9-1.7 3.9-3.9s-1.7-3.9-3.9-3.9h-7q-.5 0-.8-.3c-1.3-1.1-2-2.8-2-4.6v-8.5c0-1.6-1-2.9-2.2-2.9zM181.2 99.4c-8.1 0-14.7-2.6-19.6-7.6-4.9-5.1-7.4-12.3-7.4-21.4 0-9 2.4-16.2 7.2-21.3 4.7-5.1 11-7.7 18.7-7.7 7.9 0 14.2 2.6 18.9 7.6 4.7 5 7 12.2 7 21.4 0 1-.7 1.7-1.7 1.7h-35.9c-1.3 0-2.7.7-3.5 1.7-.9 1.1-1.2 2.4-1 3.7.9 4.5 2.6 7.9 5 10.4 3.4 3.3 7.5 5 12.3 5 3.7 0 7-1 9.9-2.8 2.5-1.6 4-3.7 4.6-6.2.1-.8.8-1.4 1.5-1.4h5.5c.6 0 1 .2 1.4.7.3.4.4 1 .3 1.5-1.2 4.2-3.6 7.6-7.1 10.1-4.3 3-9.8 4.6-16.1 4.6zm-1.1-51.5c-4.2 0-7.8 1.4-10.8 4.2-2 1.9-3.5 4.4-4.5 7.4-.5 1.5-.3 3 .6 4.2.9 1.2 2.2 1.9 3.7 1.9h22.1c1.5 0 2.8-.7 3.7-1.9.9-1.2 1.1-2.8.6-4.2-1-3-2.5-5.5-4.4-7.3-3-2.8-6.7-4.3-11-4.3z"/><path fill-rule="evenodd" d="M199.5 48.5q7.2 7.8 7.2 21.9c0 1.4-1.1 2.4-2.4 2.4h-35.9c-2.4 0-4.3 2.2-3.8 4.6q1.2 6.4 4.8 10 4.8 4.8 11.8 4.8 5.3 0 9.6-2.7 3.4-2.2 4.2-5.8c.2-1.1 1.1-1.9 2.2-1.9h5.5c1.6 0 2.8 1.6 2.3 3.1q-1.8 6.6-7.3 10.4-6.7 4.8-16.5 4.8-12.5 0-20.1-7.8-7.6-7.9-7.6-21.9 0-13.9 7.4-21.8 7.3-7.8 19.2-7.8 12.1 0 19.4 7.7zm-37.6 1.1c-4.6 4.9-7 12-7 20.8 0 8.9 2.4 16 7.2 20.9 4.8 4.9 11.2 7.4 19.1 7.4 6.2 0 11.5-1.5 15.7-4.5 3.5-2.4 5.7-5.6 6.8-9.7.1-.3 0-.6-.2-.9-.1-.2-.3-.4-.8-.4h-5.5c-.5 0-.8.4-.9.8-.6 2.8-2.2 5-4.8 6.6-3 2-6.5 3-10.3 3-5 0-9.3-1.8-12.7-5.2-2.6-2.6-4.4-6.2-5.3-10.7-.3-1.5.1-3.1 1.1-4.3 1-1.2 2.5-2 4.1-2h35.9c.6 0 1-.4 1-1 0-9-2.3-16.1-6.8-21-4.6-4.8-10.7-7.3-18.4-7.3-7.5 0-13.6 2.5-18.2 7.5zm29.3 16.7h-22.1c-1.7 0-3.3-.8-4.3-2.2-1-1.4-1.3-3.1-.7-4.8 1.1-3.2 2.6-5.7 4.7-7.7 3.1-2.9 6.9-4.4 11.3-4.4 4.5 0 8.3 1.5 11.4 4.5 2 1.9 3.6 4.4 4.7 7.6.5 1.6.3 3.4-.7 4.8-1.1 1.4-2.6 2.2-4.3 2.2zm3.7-6.6q-1.5-4.4-4.3-7-4.3-4.1-10.5-4.1-6 0-10.4 4-2.8 2.7-4.3 7.1c-.8 2.6 1 5.2 3.7 5.2h22.1c2.6 0 4.5-2.6 3.7-5.2z"/><path d="M34.4 12.7c7.8-3.1 16.4-4 24.6-2.3 1.8.4 3.7-.5 4.3-2.4.4-1.7-.6-3.9-2.5-4.2-9.4-2-19.3-1.3-28.3 2.2-1.7.7-2.9 2.4-2.4 4.3.5 1.6 2.5 3.1 4.3 2.4zM21.8 82.5c-5.6-5.5-9.5-12.4-11.5-20s-2-15.5.2-23c.5-1.8-.7-3.8-2.4-4.3-1.9-.5-3.8.6-4.3 2.5C0 51.2 2.2 66.1 9.5 78.1c2.1 3.4 4.6 6.5 7.4 9.3 3.2 3.1 8.1-1.7 4.9-4.9zM17.4 17.1c.1 1.9.9 3.4 1 3.6.4.7.8 1.2 1.1 1.5L63.1 60c.9.8 1.6 1.8 2 3l11.5 31c1.3 3.4 4.5 5.3 7.3 4.3 2.8-1.1 4-4.6 2.7-8L75.5 60.2c-.7-1.7-.7-3.6-.1-5.1l6.4-15.6c1.6-4.2-2.3-9.2-6.1-7.8-.9.3-1.6 1-2.1 1.9l-5.1 9.6c-1.6 3-5.2 3.4-7.8 1q-17-15.4-34.1-30.8l-.1-.1c-.9-.7-3.3-2.5-5.7-1.8-2.2.7-3.4 3.2-3.4 5.6z"/><path d="M81.8 93.8H32.7c-1.6 0-2.7-1.9-1.9-3.4l10.9-21.2c.4-.7 1.1-1.2 1.9-1.2h25.5" style="stroke:white;stroke-linecap:round;stroke-linejoin:round;stroke-width:9.7"/><path d="M48.5 41c-7 7.4-18.5 7.7-25.9.8-7.3-6.9-7.7-18.5-.8-25.8" style="stroke:white;stroke-linecap:round;stroke-miterlimit:10;stroke-width:9.7"/><path fill-rule="evenodd" d="M76.3 20.7c-5.2 0-9.4-4.2-9.4-9.4 0-5.1 4.2-9.3 9.4-9.3 5.1 0 9.3 4.2 9.3 9.3 0 5.2-4.2 9.4-9.3 9.4zM835.9 99.1c-8 0-14.4-2.5-19.3-7.5-4.8-4.9-7.2-12-7.2-20.9 0-8.9 2.4-15.9 7-20.9 4.7-5 10.9-7.6 18.4-7.6 7.7 0 13.9 2.5 18.5 7.4 4.6 5 6.9 12 6.9 21.1 0 .9-.7 1.7-1.7 1.7h-35.2c-1.3 0-2.6.6-3.5 1.6-.8 1-1.2 2.4-.9 3.7.8 4.3 2.5 7.7 4.9 10.1 3.3 3.3 7.3 4.9 12.1 4.9 3.6 0 6.8-.9 9.7-2.7 2.4-1.6 3.9-3.6 4.4-6.1.2-.8.9-1.4 1.6-1.4h5.4c.5 0 1 .3 1.3.7.3.4.4 1 .3 1.5-1.1 4.1-3.5 7.4-6.9 9.9-4.3 3-9.6 4.5-15.8 4.5zm-1.1-50.5c-4.1 0-7.7 1.4-10.7 4.1-1.9 1.8-3.4 4.3-4.4 7.3-.4 1.4-.2 2.9.6 4.1.9 1.2 2.2 1.9 3.7 1.9h21.6c1.5 0 2.8-.7 3.7-1.9.9-1.2 1.1-2.7.6-4.1-1-3-2.5-5.4-4.4-7.2-2.9-2.8-6.5-4.2-10.7-4.2z"/><path fill-rule="evenodd" d="M853.8 49.2q7.1 7.6 7.1 21.5c0 1.3-1.1 2.3-2.4 2.3h-35.2c-2.3 0-4.2 2.2-3.7 4.5q1.2 6.4 4.7 9.9Q829 92 835.9 92q5.2 0 9.3-2.6 3.4-2.1 4.2-5.7c.2-1.1 1.1-1.8 2.2-1.8h5.4c1.5 0 2.7 1.5 2.2 3q-1.7 6.4-7.1 10.2-6.7 4.7-16.2 4.7-12.3 0-19.7-7.7-7.5-7.7-7.5-21.4t7.2-21.4q7.2-7.7 18.9-7.7 11.9 0 19 7.6zm-36.9 1c-4.5 4.9-6.8 11.8-6.8 20.5s2.3 15.6 7 20.5c4.7 4.8 11 7.2 18.8 7.2 6 0 11.2-1.4 15.4-4.4 3.4-2.4 5.5-5.5 6.6-9.5.1-.3.1-.6-.1-.9-.2-.1-.4-.4-.8-.4h-5.4c-.5 0-.8.4-.9.8-.6 2.7-2.2 4.9-4.7 6.5-3 1.9-6.4 2.9-10.1 2.9-4.9 0-9.2-1.7-12.5-5.1-2.6-2.5-4.3-6-5.2-10.5-.3-1.5.1-3 1.1-4.2 1-1.2 2.5-1.9 4-1.9h35.2c.6 0 1-.5 1-1 0-8.9-2.2-15.8-6.7-20.6-4.4-4.8-10.5-7.2-18-7.2-7.4 0-13.4 2.5-17.9 7.3zm7.1 16.4c-1.7 0-3.2-.8-4.2-2.1-1-1.4-1.3-3.1-.7-4.7 1-3.1 2.6-5.7 4.6-7.6 3.1-2.8 6.8-4.3 11.1-4.3 4.4 0 8.1 1.5 11.2 4.4 2 1.9 3.5 4.4 4.5 7.5.6 1.6.3 3.3-.7 4.7-.9 1.3-2.5 2.1-4.2 2.1zm25.3-6.4q-1.5-4.3-4.2-6.9-4.2-4-10.3-4-5.9 0-10.2 3.9-2.8 2.6-4.2 7c-.8 2.5 1 5.1 3.6 5.1h21.6c2.7 0 4.5-2.6 3.7-5.1z"/><path d="M733.7 18.4c.1 1.8.9 3.4 1 3.5.4.7.8 1.2 1.1 1.5l42.7 37c.9.8 1.6 1.9 2.1 3.1l11.2 30.4c1.3 3.3 4.5 5.1 7.2 4.1s3.9-4.5 2.7-7.8l-11-29.5c-.6-1.7-.6-3.6 0-5.1l6.2-15.3c1.6-4-2.2-9-6-7.6-.8.3-1.5 1-2 1.8l-5.1 9.5c-1.5 2.9-5 3.4-7.6 1l-33.4-30.2-.1-.1c-.9-.7-3.3-2.5-5.7-1.8-2.1.7-3.3 3.2-3.3 5.5zM943.7 100.1c-3.8 0-6.7-.8-8.4-2.4-1.8-1.7-2.9-3.8-3.3-6.4-.5-2.7-.7-6.4-.7-11v-34c0-1.9-1-3.6-2.5-4.4q-.2-.1-.3-.1h-5.1c-2.5 0-4.6-2-4.6-4.5s2.1-4.5 4.6-4.5h5.8q.2 0 .4-.2c1.1-.9 1.7-2.3 1.7-3.9v-8.4c0-1.9 1.2-3.5 2.8-3.5h3c1.5 0 2.7 1.6 2.7 3.5v8.4c0 1.6.7 3 1.7 3.9q.2.2.5.2h6.8c2.5 0 4.5 2 4.5 4.5s-2 4.5-4.5 4.5h-6.2q-.1 0-.3.1c-1.5.8-2.5 2.5-2.5 4.4v34.6c0 4.8.5 7.8 1.6 9.2q1.6 2.1 4.5 2.1.7 0 1.4-.1h.2c1.4 0 2.6 1.6 2.6 3.5v1.6c0 1.4-.5 2.4-1.5 2.6q-2.3.3-4.9.3z"/><path fill-rule="evenodd" d="M940.5 20.3v8.4c0 1.4.6 2.7 1.5 3.4h6.8c2.9 0 5.2 2.3 5.2 5.2 0 2.9-2.3 5.2-5.2 5.2h-6.2c-1.2.6-2.1 2.1-2.1 3.8v34.6q0 6.9 1.4 8.7 1.5 1.9 4 1.9H947.5c1.8 0 3.3 1.8 3.3 4.1v1.6c0 1.9-.9 3.1-2.1 3.2q-2.3.4-5 .4-6 0-8.9-2.6-2.8-2.7-3.5-6.8-.7-4.1-.7-11.1v-34c0-1.7-.9-3.2-2.1-3.8h-5.1c-2.9 0-5.3-2.3-5.3-5.2 0-2.9 2.4-5.2 5.3-5.2h5.8c.8-.7 1.4-2 1.4-3.4v-8.4c0-2.3 1.6-4.1 3.5-4.1h3c1.9 0 3.4 1.8 3.4 4.1zm-6.4-2.8c-1.2 0-2.1 1.3-2.1 2.8v8.4c0 1.8-.7 3.4-2 4.4q-.4.4-.8.4h-5.8c-2.2 0-3.9 1.7-3.9 3.8 0 2.1 1.7 3.9 3.9 3.9h5.1q.3 0 .6.1c1.7.9 2.9 2.8 2.9 5v34c0 4.6.2 8.3.6 10.9.5 2.5 1.5 4.4 3.1 6 1.7 1.5 4.4 2.2 8 2.2q2.6 0 4.8-.3c.6-.1 1-.9 1-1.9v-1.6c0-1.5-1-2.8-2-2.8h-.1q-.8.1-1.5.1-3.2 0-5-2.4c-1.2-1.6-1.8-4.6-1.8-9.6V46.3c0-2.2 1.2-4.1 2.9-5q.3-.1.6-.1h6.2c2.1 0 3.8-1.8 3.8-3.9 0-2.1-1.7-3.8-3.8-3.8H942q-.5 0-.9-.4c-1.2-1-2-2.6-2-4.4v-8.4c0-1.5-.9-2.8-2-2.8zM894.7 99.1c-8 0-14.5-2.5-19.3-7.5-4.8-4.9-7.2-12-7.2-20.9 0-8.9 2.3-15.9 7-20.9 4.6-5 10.8-7.6 18.4-7.6 7.7 0 13.9 2.5 18.5 7.4 4.6 5 6.9 12 6.9 21.1 0 .9-.8 1.7-1.7 1.7h-35.2c-1.3 0-2.6.6-3.5 1.6-.8 1-1.2 2.4-.9 3.7.8 4.3 2.5 7.7 4.9 10.1 3.3 3.3 7.3 4.9 12.1 4.9 3.5 0 6.8-.9 9.7-2.7 2.4-1.6 3.8-3.6 4.4-6.1.2-.8.8-1.4 1.6-1.4h5.3c.6 0 1.1.3 1.4.7.3.4.4 1 .3 1.5-1.2 4.1-3.5 7.4-7 9.9-4.2 3-9.6 4.5-15.7 4.5zm-1.1-50.5c-4.2 0-7.7 1.4-10.7 4.1-1.9 1.8-3.4 4.3-4.4 7.3-.5 1.4-.2 2.9.6 4.1.9 1.2 2.2 1.9 3.7 1.9h21.6c1.5 0 2.8-.7 3.7-1.9.8-1.2 1.1-2.7.6-4.1-1-3-2.5-5.4-4.4-7.2-2.9-2.8-6.5-4.2-10.7-4.2z"/><path fill-rule="evenodd" d="M912.6 49.2q7.1 7.6 7.1 21.5c0 1.3-1.1 2.3-2.4 2.3h-35.2c-2.4 0-4.2 2.2-3.8 4.5q1.3 6.4 4.8 9.9 4.7 4.6 11.6 4.6 5.2 0 9.3-2.6 3.4-2.1 4.2-5.7c.2-1.1 1.1-1.8 2.2-1.8h5.3c1.6 0 2.7 1.5 2.3 3q-1.7 6.4-7.2 10.2-6.6 4.7-16.1 4.7-12.3 0-19.8-7.7-7.4-7.7-7.4-21.4t7.2-21.4q7.2-7.7 18.9-7.7 11.9 0 19 7.6zm-36.9 1c-4.6 4.9-6.9 11.8-6.9 20.5s2.4 15.6 7.1 20.5c4.7 4.8 11 7.2 18.8 7.2 6 0 11.2-1.4 15.4-4.4 3.3-2.4 5.5-5.5 6.6-9.5.1-.3 0-.6-.2-.9-.1-.1-.3-.4-.8-.4h-5.3c-.5 0-.8.4-.9.8-.6 2.7-2.2 4.9-4.8 6.5-2.9 1.9-6.3 2.9-10 2.9-5 0-9.2-1.7-12.6-5.1-2.5-2.5-4.2-6-5.1-10.5-.3-1.5.1-3 1.1-4.2 1-1.2 2.4-1.9 4-1.9h35.2c.6 0 1-.5 1-1 0-8.9-2.2-15.8-6.7-20.6-4.5-4.8-10.5-7.2-18-7.2-7.4 0-13.4 2.5-17.9 7.3zm7.1 16.4c-1.7 0-3.2-.8-4.2-2.1-1-1.4-1.3-3.1-.7-4.7 1-3.1 2.5-5.7 4.6-7.6 3-2.8 6.8-4.3 11.1-4.3 4.4 0 8.1 1.5 11.2 4.4 1.9 1.9 3.5 4.4 4.5 7.5.6 1.6.3 3.3-.7 4.7-1 1.3-2.5 2.1-4.2 2.1zm25.3-6.4q-1.5-4.3-4.2-6.9-4.2-4-10.3-4-6 0-10.2 3.9-2.8 2.6-4.2 7c-.9 2.5 1 5.1 3.6 5.1h21.6c2.7 0 4.5-2.6 3.7-5.1z"/><path d="M471.7 12.2c8-3.1 16.6-4 24.9-2.3 1.8.4 3.8-.5 4.3-2.4.5-1.7-.6-3.9-2.5-4.3-9.5-2-19.5-1.3-28.6 2.3-1.7.7-2.9 2.4-2.4 4.3.5 1.7 2.5 3.1 4.3 2.4zM459 82.8c-8.8-8.7-13.4-20.9-13.1-33.2l.2-2.8q.1-.7.1-1.3s.1-.6.1-.3c0 .2.1-.4.1-.5q.4-2.7 1.1-5.4c1.3-4.3-5.5-6.2-6.7-1.8-3.8 13.6-1.7 28.7 5.8 40.8 2.1 3.4 4.6 6.6 7.5 9.4 3.2 3.2 8.1-1.7 4.9-4.9zM454.6 16.7c0 1.9.9 3.5.9 3.6.4.7.9 1.3 1.2 1.6l44 38.1c.9.8 1.6 1.9 2.1 3.1l11.6 31.3c1.3 3.4 4.5 5.3 7.3 4.3s4.1-4.6 2.8-8l-11.3-30.5c-.6-1.7-.6-3.6 0-5.2l6.4-15.7c1.7-4.2-2.3-9.3-6.1-7.9-.9.4-1.7 1-2.1 1.9l-5.3 9.8c-1.5 3-5.2 3.4-7.8 1Q481.1 28.5 463.9 13l-.1-.1c-.9-.7-3.4-2.6-5.8-1.9-2.2.7-3.5 3.3-3.4 5.7z"/><path d="M519.7 94.2H470c-1.6 0-2.7-1.9-1.9-3.4l11-21.4c.4-.8 1.2-1.2 2-1.2h25.7" style="stroke:#000;stroke-linecap:round;stroke-linejoin:round;stroke-width:9.8"/><path d="M485.9 40.9c-7 7.4-18.6 7.8-26.1.8-7.4-7-7.8-18.7-.8-26.1" style="stroke:#000;stroke-linecap:round;stroke-miterlimit:10;stroke-width:9.8"/><path fill-rule="evenodd" d="M514 20.3c-5.2 0-9.4-4.2-9.4-9.4s4.2-9.5 9.4-9.5 9.5 4.3 9.5 9.5-4.3 9.4-9.5 9.4z"/></svg>
